<?xml version="1.0" encoding="utf-8"?>
<!-- Generator: Adobe Illustrator 25.0.0, SVG Export Plug-In . SVG Version: 6.00 Build 0)  -->
<svg version="1.1" xmlns="http://www.w3.org/2000/svg" xmlns:xlink="http://www.w3.org/1999/xlink" x="0px" y="0px"
	 viewBox="0 0 289 151" enable-background="new 0 0 289 151" xml:space="preserve">
<g id="BACKGROUND">
</g>
<g id="OBJECTS">
	<g>
		<defs>
			
				<rect id="SVGID_7_" x="69.3" y="-68.7" transform="matrix(6.123234e-17 -1 1 6.123234e-17 69.3197 220.2947)" width="151" height="288.4"/>
		</defs>
		<clipPath id="SVGID_2_">
			<use xlink:href="#SVGID_7_"  overflow="visible"/>
		</clipPath>
		
			<rect x="69.3" y="-68.7" transform="matrix(6.123234e-17 -1 1 6.123234e-17 69.3197 220.2947)" clip-path="url(#SVGID_2_)" fill="#FFD96E" width="151" height="288.4"/>
		<g clip-path="url(#SVGID_2_)">
			<g>
				<g>
					<path fill="#FFFFFF" d="M50.7,70.4l0.7,30.6c0,0.4-0.3,0.7-0.7,0.7c-0.4,0-0.7-0.3-0.7-0.7c0,0,0,0,0,0L50.7,70.4z"/>
				</g>
				<g>
					<path fill="#FFFFFF" d="M52.4,70.2l9,29.2c0.1,0.4-0.1,0.7-0.4,0.8c-0.4,0.1-0.7-0.1-0.8-0.4c0,0,0,0,0,0L52.4,70.2z"/>
				</g>
				<g>
					<path fill="#FFFFFF" d="M54,69.5l16.7,25.6c0.2,0.3,0.1,0.7-0.2,0.9c-0.3,0.2-0.7,0.1-0.9-0.2c0,0,0,0,0,0L54,69.5z"/>
				</g>
				<g>
					<path fill="#FFFFFF" d="M55.3,68.3l23.1,20.1c0.3,0.2,0.3,0.7,0.1,0.9c-0.2,0.3-0.7,0.3-0.9,0.1c0,0,0,0,0,0L55.3,68.3z"/>
				</g>
				<g>
					<path fill="#FFFFFF" d="M56.3,66.9l27.7,13c0.3,0.2,0.5,0.6,0.3,0.9c-0.2,0.3-0.6,0.5-0.9,0.3c0,0,0,0,0,0L56.3,66.9z"/>
				</g>
				<g>
					<path fill="#FFFFFF" d="M56.9,65.3L87,70.1c0.4,0.1,0.6,0.4,0.6,0.8c-0.1,0.4-0.4,0.6-0.8,0.6c0,0,0,0,0,0L56.9,65.3z"/>
				</g>
				<g>
					<path fill="#FFFFFF" d="M56.9,63.5l30.4-3.6c0.4,0,0.7,0.2,0.7,0.6s-0.2,0.7-0.6,0.7c0,0,0,0,0,0L56.9,63.5z"/>
				</g>
				<g>
					<path fill="#FFFFFF" d="M56.5,61.8L84.7,50c0.3-0.1,0.7,0,0.9,0.4c0.1,0.3,0,0.7-0.4,0.9c0,0,0,0,0,0L56.5,61.8z"/>
				</g>
				<g>
					<path fill="#FFFFFF" d="M55.6,60.3l23.9-19.1c0.3-0.2,0.7-0.2,0.9,0.1c0.2,0.3,0.2,0.7-0.1,0.9c0,0,0,0,0,0L55.6,60.3z"/>
				</g>
				<g>
					<path fill="#FFFFFF" d="M54.4,59.1l17.8-24.9c0.2-0.3,0.6-0.4,0.9-0.2c0.3,0.2,0.4,0.6,0.2,0.9c0,0,0,0,0,0L54.4,59.1z"/>
				</g>
				<g>
					<path fill="#FFFFFF" d="M52.9,58.3l10.2-28.8c0.1-0.3,0.5-0.5,0.9-0.4c0.3,0.1,0.5,0.5,0.4,0.9c0,0,0,0,0,0L52.9,58.3z"/>
				</g>
				<g>
					<path fill="#FFFFFF" d="M51.2,57.9l2-30.5c0-0.4,0.3-0.6,0.7-0.6c0.4,0,0.6,0.3,0.6,0.7c0,0,0,0,0,0L51.2,57.9z"/>
				</g>
				<g>
					<path fill="#FFFFFF" d="M49.5,58L43,28.1c-0.1-0.4,0.2-0.7,0.5-0.8c0.4-0.1,0.7,0.2,0.8,0.5c0,0,0,0,0,0L49.5,58z"/>
				</g>
				<g>
					<path fill="#FFFFFF" d="M47.8,58.6l-14.4-27c-0.2-0.3-0.1-0.7,0.3-0.9c0.3-0.2,0.7-0.1,0.9,0.3c0,0,0,0,0,0L47.8,58.6z"/>
				</g>
				<g>
					<path fill="#FFFFFF" d="M46.4,59.6l-21.3-22c-0.3-0.3-0.3-0.7,0-0.9c0.3-0.3,0.7-0.3,0.9,0c0,0,0,0,0,0L46.4,59.6z"/>
				</g>
				<g>
					<path fill="#FFFFFF" d="M45.3,60.9L18.8,45.6c-0.3-0.2-0.4-0.6-0.2-0.9c0.2-0.3,0.6-0.4,0.9-0.2c0,0,0,0,0,0L45.3,60.9z"/>
				</g>
				<g>
					<path fill="#FFFFFF" d="M44.6,62.5L15,55.1c-0.4-0.1-0.6-0.5-0.5-0.8c0.1-0.4,0.5-0.6,0.8-0.5c0,0,0,0,0,0L44.6,62.5z"/>
				</g>
				<g>
					<path fill="#FFFFFF" d="M44.4,64.2l-30.6,1c-0.4,0-0.7-0.3-0.7-0.6c0-0.4,0.3-0.7,0.6-0.7c0,0,0,0,0,0L44.4,64.2z"/>
				</g>
				<g>
					<path fill="#FFFFFF" d="M44.7,66l-29.1,9.3c-0.4,0.1-0.7-0.1-0.8-0.4c-0.1-0.4,0.1-0.7,0.4-0.8c0,0,0,0,0,0L44.7,66z"/>
				</g>
				<g>
					<path fill="#FFFFFF" d="M45.4,67.5l-25.5,17c-0.3,0.2-0.7,0.1-0.9-0.2s-0.1-0.7,0.2-0.9c0,0,0,0,0,0L45.4,67.5z"/>
				</g>
				<g>
					<path fill="#FFFFFF" d="M46.5,68.9L26.7,92.1c-0.2,0.3-0.7,0.3-0.9,0.1c-0.3-0.2-0.3-0.7-0.1-0.9c0,0,0,0,0,0L46.5,68.9z"/>
				</g>
				<g>
					<path fill="#FFFFFF" d="M48,69.8L35.3,97.6c-0.2,0.3-0.6,0.5-0.9,0.3c-0.3-0.2-0.5-0.6-0.3-0.9c0,0,0,0,0,0L48,69.8z"/>
				</g>
				<g>
					<path fill="#FFFFFF" d="M49.6,70.3l-4.6,30.2c-0.1,0.4-0.4,0.6-0.8,0.6c-0.4-0.1-0.6-0.4-0.6-0.8c0,0,0,0,0,0L49.6,70.3z"/>
				</g>
			</g>
		</g>
		<g clip-path="url(#SVGID_2_)">
			<g>
				<g>
					<path fill="#FFFFFF" d="M206.4,45l30.6-0.7c0.4,0,0.7,0.3,0.7,0.7c0,0.4-0.3,0.7-0.7,0.7c0,0,0,0,0,0L206.4,45z"/>
				</g>
				<g>
					<path fill="#FFFFFF" d="M206.2,43.3l29.2-9c0.4-0.1,0.7,0.1,0.8,0.4c0.1,0.4-0.1,0.7-0.4,0.8c0,0,0,0,0,0L206.2,43.3z"/>
				</g>
				<g>
					<path fill="#FFFFFF" d="M205.4,41.7L231.1,25c0.3-0.2,0.7-0.1,0.9,0.2c0.2,0.3,0.1,0.7-0.2,0.9c0,0,0,0,0,0L205.4,41.7z"/>
				</g>
				<g>
					<path fill="#FFFFFF" d="M204.3,40.4l20.1-23.1c0.2-0.3,0.7-0.3,0.9-0.1c0.3,0.2,0.3,0.7,0.1,0.9c0,0,0,0,0,0L204.3,40.4z"/>
				</g>
				<g>
					<path fill="#FFFFFF" d="M202.9,39.4l13-27.7c0.2-0.3,0.6-0.5,0.9-0.3c0.3,0.2,0.5,0.6,0.3,0.9c0,0,0,0,0,0L202.9,39.4z"/>
				</g>
				<g>
					<path fill="#FFFFFF" d="M201.2,38.9l4.9-30.2c0.1-0.4,0.4-0.6,0.8-0.6c0.4,0.1,0.6,0.4,0.6,0.8c0,0,0,0,0,0L201.2,38.9z"/>
				</g>
				<g>
					<path fill="#FFFFFF" d="M199.5,38.8l-3.6-30.4c0-0.4,0.2-0.7,0.6-0.7s0.7,0.2,0.7,0.6c0,0,0,0,0,0L199.5,38.8z"/>
				</g>
				<g>
					<path fill="#FFFFFF" d="M197.8,39.2L186,11c-0.1-0.3,0-0.7,0.4-0.9c0.3-0.1,0.7,0,0.9,0.4c0,0,0,0,0,0L197.8,39.2z"/>
				</g>
				<g>
					<path fill="#FFFFFF" d="M196.3,40.1l-19.1-23.9c-0.2-0.3-0.2-0.7,0.1-0.9c0.3-0.2,0.7-0.2,0.9,0.1c0,0,0,0,0,0L196.3,40.1z"/>
				</g>
				<g>
					<path fill="#FFFFFF" d="M195.1,41.3l-24.9-17.8c-0.3-0.2-0.4-0.6-0.2-0.9c0.2-0.3,0.6-0.4,0.9-0.2c0,0,0,0,0,0L195.1,41.3z"/>
				</g>
				<g>
					<path fill="#FFFFFF" d="M194.3,42.8l-28.8-10.2c-0.3-0.1-0.5-0.5-0.4-0.9c0.1-0.3,0.5-0.5,0.9-0.4c0,0,0,0,0,0L194.3,42.8z"/>
				</g>
				<g>
					<path fill="#FFFFFF" d="M193.9,44.5l-30.5-2c-0.4,0-0.6-0.3-0.6-0.7c0-0.4,0.3-0.6,0.7-0.6c0,0,0,0,0,0L193.9,44.5z"/>
				</g>
				<g>
					<path fill="#FFFFFF" d="M194,46.3l-29.9,6.5c-0.4,0.1-0.7-0.2-0.8-0.5c-0.1-0.4,0.2-0.7,0.5-0.8c0,0,0,0,0,0L194,46.3z"/>
				</g>
				<g>
					<path fill="#FFFFFF" d="M194.5,47.9l-27,14.4c-0.3,0.2-0.7,0.1-0.9-0.3c-0.2-0.3-0.1-0.7,0.3-0.9c0,0,0,0,0,0L194.5,47.9z"/>
				</g>
				<g>
					<path fill="#FFFFFF" d="M195.5,49.3l-22,21.3c-0.3,0.3-0.7,0.3-0.9,0c-0.3-0.3-0.3-0.7,0-0.9c0,0,0,0,0,0L195.5,49.3z"/>
				</g>
				<g>
					<path fill="#FFFFFF" d="M196.9,50.4l-15.3,26.5c-0.2,0.3-0.6,0.4-0.9,0.2s-0.4-0.6-0.2-0.9c0,0,0,0,0,0L196.9,50.4z"/>
				</g>
				<g>
					<path fill="#FFFFFF" d="M198.5,51.1l-7.4,29.7c-0.1,0.4-0.5,0.6-0.8,0.5c-0.4-0.1-0.6-0.5-0.5-0.8c0,0,0,0,0,0L198.5,51.1z"/>
				</g>
				<g>
					<path fill="#FFFFFF" d="M200.2,51.3l1,30.6c0,0.4-0.3,0.7-0.6,0.7c-0.4,0-0.7-0.3-0.7-0.6c0,0,0,0,0,0L200.2,51.3z"/>
				</g>
				<g>
					<path fill="#FFFFFF" d="M201.9,51.1l9.3,29.1c0.1,0.4-0.1,0.7-0.4,0.8c-0.4,0.1-0.7-0.1-0.8-0.4c0,0,0,0,0,0L201.9,51.1z"/>
				</g>
				<g>
					<path fill="#FFFFFF" d="M203.5,50.3l17,25.5c0.2,0.3,0.1,0.7-0.2,0.9s-0.7,0.1-0.9-0.2c0,0,0,0,0,0L203.5,50.3z"/>
				</g>
				<g>
					<path fill="#FFFFFF" d="M204.8,49.2L228.1,69c0.3,0.2,0.3,0.7,0.1,0.9s-0.7,0.3-0.9,0.1c0,0,0,0,0,0L204.8,49.2z"/>
				</g>
				<g>
					<path fill="#FFFFFF" d="M205.8,47.7l27.8,12.7c0.3,0.2,0.5,0.6,0.3,0.9c-0.2,0.3-0.6,0.5-0.9,0.3c0,0,0,0,0,0L205.8,47.7z"/>
				</g>
				<g>
					<path fill="#FFFFFF" d="M206.3,46.1l30.2,4.6c0.4,0.1,0.6,0.4,0.6,0.8c-0.1,0.4-0.4,0.6-0.8,0.6c0,0,0,0,0,0L206.3,46.1z"/>
				</g>
			</g>
		</g>
		<polygon clip-path="url(#SVGID_2_)" fill="#EC1A57" points="151.2,8.5 162.8,22.2 138.7,39.2 		"/>
		<g clip-path="url(#SVGID_2_)">
			<g>
				<path fill="#FFFFFF" d="M193.9,107.3c-0.4,1.3,0.6,4.3,2.3,4.2c2-0.1,3-3.5,3.4-5c1.3-5.3-5.1-13-10.5-9.2
					c-2.3,1.6-4.2,4.6-4.7,7.4c-0.4,2.2-0.3,4.7,1.7,6c0.7,0.5,1.7,0.7,2.4,0.2c0.9-0.5,0.9-2,1.1-2.9c0.3-1.2,0.5-2.4,0.2-3.7
					c-0.3-1.4-0.9-2.7-1.8-3.9c-1-1.4-2.3-2.5-3.7-3.4c-1.2-0.7-2.1-0.8-3.4-0.5c-1.3,0.3-2,0.7-2.7,1.8c-1.1,1.5-1.9,3.3-2.3,5.1
					c-0.2,0.7,1.4,0.5,1.5-0.1c0.3-1.1,0.7-2.2,1.3-3.3c0.5-0.8,1-2.1,1.9-2.4c0.7-0.2,1.5-0.3,2.2,0c1,0.5,1.9,1.2,2.7,2
					c1.5,1.5,2.7,3.5,3,5.7c0.1,0.8-0.1,1.5-0.2,2.3c-0.1,0.5-0.2,0.9-0.3,1.4c0,0.2-0.1,0.4-0.1,0.6c0,0.2-0.1,0.4-0.2,0.6
					c0.1,0,0.1-0.1,0.2-0.1c-1.8-0.5-2-2.6-2-4.1c0-2.1,0.7-4,1.9-5.7c0.7-1,1.5-1.9,2.5-2.6c1.4-0.9,2.8-0.5,4.1,0.4
					c1.8,1.3,3.2,3.2,3.7,5.4c0.5,2.1-0.2,4.3-1.3,6.1c-0.1,0.2-0.2,0.3-0.3,0.5c-0.1,0.1-0.1,0.2-0.2,0.2c-0.2,0.2-0.1,0.2,0.4,0
					c0-0.1-0.6-0.7-0.7-0.9c-0.3-0.7-0.7-1.6-0.4-2.4C195.6,106.5,194.1,106.7,193.9,107.3L193.9,107.3z"/>
			</g>
		</g>
		<g clip-path="url(#SVGID_2_)">
			<g>
				<path fill="#FFFFFF" d="M96.4,31.9c0.9-0.5,1.5-1.3,1.8-2.2c0.3-0.6,0.7-1.7,0.1-2.3c-0.7-0.6-2-0.3-2.8-0.1
					c-1.1,0.3-2.3,0.8-3.3,1.4c-2.4,1.4-3.8,4.2-4,6.9c-0.2,2.9,0.7,6.1,3.9,6.8c3,0.6,6.6-0.1,9.1-1.8c1.8-1.2,3.6-2.9,3.4-5.2
					c-0.1-0.7-0.3-1.6-1.1-1.9c-1-0.3-2.1,0.6-3,1c-1,0.6-2,1.2-2.8,2.1c-0.9,1.1-1.5,2.3-1.9,3.6c-0.7,2.5-1,6.6,1.3,8.4
					c1.2,0.9,2,1.1,3.5,0.9c1.9-0.3,3.7-0.9,5.4-1.9c0.9-0.5,0.1-1.2-0.7-0.8c-1.1,0.6-2.3,1.1-3.5,1.4c-1,0.3-2,0.5-2.9-0.1
					c-0.6-0.4-1.3-0.9-1.5-1.6c-0.4-1.1-0.5-2.3-0.5-3.4c0-2.1,0.5-4.3,1.8-6c0.5-0.7,1.2-1.1,1.9-1.6c0.4-0.2,0.7-0.5,1.1-0.7
					c0.2-0.1,0.5-0.2,0.7-0.4c0.2-0.2,0-0.1,0.1,0c0.6,1.4,0.5,2.6-0.6,3.7c-1.6,1.7-3.6,2.8-5.9,3.2c-2.6,0.4-5.4,0-6.2-2.9
					c-0.6-2-0.3-4.4,0.6-6.3c1-2.1,2.7-3.2,4.9-3.8c0.3-0.1,1-0.4,1.4-0.2c0.3,0.1,0.2,0.5,0.1,0.8c-0.1,0.7-0.6,1.9-1.3,2.2
					C94.8,31.6,95.7,32.3,96.4,31.9L96.4,31.9z"/>
			</g>
		</g>
		<g clip-path="url(#SVGID_2_)">
			<g>
				<path fill="#1DBCD2" d="M262.1,59.1c0.9,0.7,3.4,0.9,4.2,0c1-1.1-1.6-3.3-2.3-3.9c-1.8-1.4-4.5-1.5-6.6-0.8
					c-2.1,0.7-4.5,2.2-4.2,4.7c0.2,2.4,2,4.8,3.9,6.1c1.5,1,3.4,1.8,5.1,1c0.6-0.3,1.5-0.8,1.5-1.5c0-0.7-1.2-1.4-1.7-1.7
					c-0.8-0.6-1.5-1-2.5-1.3c-1.1-0.3-2.3-0.3-3.5-0.1c-1.3,0.2-2.5,0.7-3.6,1.4c-1,0.6-1.8,1.1-2.1,2.2c-0.1,0.5-0.3,1-0.2,1.4
					c0,0.5,0.3,0.9,0.6,1.3c0.8,1.3,1.8,2.3,3,3.2c0.4,0.3,1.5-0.3,0.9-0.7c-0.8-0.6-1.5-1.3-2.1-2c-0.4-0.6-1.2-1.4-1.2-2.2
					c0-0.5,0.2-1.3,0.4-1.8c0.4-0.7,1.5-1.1,2.1-1.5c1.6-0.8,3.6-1.1,5.3-0.5c0.6,0.2,1.1,0.5,1.5,0.9c0.3,0.2,1.7,1,1.7,1.5
					c0,0.4-0.9,0.7-1.2,0.8c-0.7,0.2-1.4-0.3-2-0.5c-1.6-0.7-2.8-1.9-3.7-3.4c-1-1.7-1.7-4,0-5.4c1.4-1.2,3.4-1.7,5.2-1.4
					c1.8,0.3,3.2,1.5,4.2,2.9c0.1,0.2,0.5,0.6,0.4,0.9c0,0.1-0.1,0.1-0.4,0.1c-0.6,0.1-1.4,0-1.8-0.4
					C262.7,58.1,261.6,58.7,262.1,59.1L262.1,59.1z"/>
			</g>
		</g>
		<g clip-path="url(#SVGID_2_)">
			<rect x="-6.4" y="9.2" fill="#FFFFFF" width="116.1" height="20.1"/>
			<text transform="matrix(1 0 0 1 2.8706 23.2984)" fill="#072230" font-family="'Futura-Medium'" font-size="10.4656px">DISCOUNT SPECIAL</text>
		</g>
		<polygon clip-path="url(#SVGID_2_)" fill="#FF87AA" points="51.6,64 58.1,132.4 175.3,129.6 175.3,53.6 		"/>
		<polygon clip-path="url(#SVGID_2_)" fill="#EC1A57" points="55.5,60.1 62,128.5 179.2,125.7 179.2,49.7 		"/>
		<g clip-path="url(#SVGID_2_)">
			<polygon fill="#072230" points="90.3,116 86.7,148.4 150.8,147.6 145.9,114.9 			"/>
			
				<text transform="matrix(1 0 0 1 99.8141 138.6391)" fill="#FFFFFF" font-family="'HiraKakuStdN-W8-83pv-RKSJ-H'" font-size="14px">今すぐ</text>
		</g>
		<g clip-path="url(#SVGID_2_)">
			<text transform="matrix(1 0 0 1 66.8861 110.111)" fill="#FFFFFF" font-family="'HiraKakuStd-W8-83pv-RKSJ-H'" font-size="12px">さらにポイント付き！</text>
		</g>
		<g clip-path="url(#SVGID_2_)">
			<g>
				<g>
					<path fill="#FF87AA" d="M207.7,19.9C201,4.3,207-7,218.2-11.8c11.2-4.8,23.5-1.4,30.2,14.2c5.5,12.8,1.7,33-2.4,40.9
						c3.1,1.3,6.3,4.5,7.2,6.8c1.5,3.4-3.5,0.6-7.4,2.3c-3.9,1.7-5.3,7.2-6.8,3.8c-1-2.3-1.2-6.8,0.1-9.9
						C230.5,43.8,213.2,32.6,207.7,19.9z"/>
					<path opacity="0.37" fill="#FF87AA" d="M239.1,46.3c-4.1-1.2-10.2-4.3-16-8.7c2.6-0.4,5.2-1.3,7.7-2.6
						c12.7-6.8,17.1-23.2,9.9-36.6c-3-5.5-7.4-9.6-12.5-12.1c8,0.3,15.5,5.2,20.2,16.2c5.5,12.8,1.7,33-2.4,40.9
						c3.1,1.3,6.3,4.5,7.2,6.8c1.5,3.4-3.5,0.6-7.4,2.3c-3.9,1.7-5.3,7.2-6.8,3.8C238,53.9,237.9,49.4,239.1,46.3z"/>
				</g>
				<g>
					<g>
						<path fill="#4182D2" d="M247.5,42.6c-2.1,1.7-5.7,4.3-8.6,3.6c-2-0.5-3.6-2.7-2.5-4.7c0.9-1.7,3.2-1.7,3.8,0.2
							c0.9,2.9-1.6,5.8,0.7,8.4c2.5,2.8,6.9,2.3,9.5,4.9c2.4,2.4,0.9,4.7,0.3,7.5c-0.4,1.8-0.4,3.7,0,5.5c0.4,1.9,0.8,3.4,2.9,3.7
							c1.9,0.2,4.4,0,4.7,2.5c0.2,1.7-0.8,3.3-0.9,4.9c-0.1,2.7,2.4,2.3,3.6,3.9c1.1,1.3-0.1,2.1-0.5,3.3c-0.5,1.5,1.6,2.3,1.4,3.8
							c0,0.3-0.9,0.4-0.8,0c0.1-1.1-1.1-1.7-1.4-2.7c-0.3-0.9,0.2-1.5,0.6-2.3c1-1.8-0.8-2.4-2.1-3.2c-1-0.5-1.5-1.3-1.6-2.4
							c-0.1-2.1,2.5-6.2-0.7-7.2c-1.5-0.5-3.4,0.1-4.7-1c-1.6-1.4-1.6-4.7-1.6-6.6c0-1.2,0.3-2.5,0.6-3.7c0.4-1.3,1-2.7,0.6-4.1
							c-1.7-5.3-11.6-3-11.8-9.5c0-1.1,0.3-2.2,0.4-3.4c0.1-0.7,0.2-1.4,0-2c-0.1-0.3-0.2-0.7-0.4-0.9c-1.1-1.2-1.9,0-2.1,0.8
							c-0.4,1.8,1,3.3,2.8,3.6c2.3,0.3,5.4-2,7.1-3.4c0.3-0.2,1.3-0.3,0.9,0L247.5,42.6z"/>
					</g>
				</g>
				<path opacity="0.31" fill="#FF87AA" d="M208.1,12.3c2.2,9.9,10.4,16.5,18.3,14.7c7.9-1.8,12.5-11.2,10.3-21.1
					c-2.2-9.9-10.4-16.5-18.3-14.7C210.4-7.1,205.8,2.4,208.1,12.3z"/>
				
					<ellipse transform="matrix(0.9755 -0.2199 0.2199 0.9755 4.1042 47.9239)" opacity="0.31" fill="#FF87AA" cx="217.3" cy="5.5" rx="6.9" ry="8.7"/>
			</g>
			<g>
				<g>
					<g>
						<path fill="#1DBCD2" d="M239.7,37.5c-3-16.7,5.3-26.3,17.4-28.5c12-2.2,23.2,4,26.2,20.7c2.5,13.7-5.8,32.5-11.6,39.3
							c2.8,1.9,5.1,5.8,5.5,8.2c0.7,3.6-3.6-0.2-7.8,0.5c-4.2,0.8-6.8,5.8-7.5,2.2c-0.4-2.5,0.4-6.9,2.3-9.6
							C256.4,66,242.1,51.2,239.7,37.5z"/>
						<path opacity="0.37" fill="#1DBCD2" d="M264.3,70.3c-3.7-2.1-8.9-6.5-13.6-12.1c2.7,0.2,5.4-0.1,8.1-0.8
							c13.9-3.8,21.9-18.7,17.9-33.5c-1.6-6-5-11.1-9.4-14.7c7.7,2.1,13.9,8.6,16,20.4c2.5,13.7-5.8,32.5-11.6,39.3
							c2.8,1.9,5.1,5.8,5.5,8.2c0.7,3.6-3.6-0.2-7.8,0.5c-4.2,0.8-6.8,5.8-7.5,2.2C261.5,77.5,262.4,73.1,264.3,70.3z"/>
					</g>
				</g>
				<g>
					<g>
						<path fill="#072230" d="M273.3,68.7c-2.4,1.2-6.5,2.9-9.1,1.5c-1.9-0.9-2.9-3.4-1.4-5.2c1.3-1.5,3.5-0.9,3.7,1.1
							c0.3,3-2.9,5.3-1.2,8.4c1.8,3.3,6.2,3.8,8.1,6.9c1.8,2.8-0.2,4.8-1.4,7.4c-0.8,1.7-1.2,3.5-1.3,5.4c-0.1,1.9,0,3.5,2,4.2
							c1.8,0.6,4.2,1,4,3.5c-0.2,1.7-1.5,3-1.9,4.6c-0.7,2.6,1.8,2.8,2.6,4.6c0.7,1.5-0.6,2-1.3,3.1c-0.9,1.4,1,2.6,0.5,4.1
							c-0.1,0.3-1,0.2-0.8-0.2c0.4-1.1-0.7-1.9-0.8-2.9c-0.1-1,0.5-1.4,1.1-2.1c1.4-1.5-0.2-2.6-1.3-3.6c-0.8-0.7-1.2-1.6-1-2.7
							c0.3-2.1,3.8-5.5,1-7.2c-1.4-0.8-3.4-0.6-4.4-2.1c-1.2-1.7-0.5-5,0-6.8c0.3-1.2,0.8-2.4,1.4-3.4c0.7-1.2,1.6-2.4,1.5-3.8
							c-0.5-5.6-10.6-5.5-9.3-11.9c0.2-1.1,0.8-2.1,1.2-3.2c0.2-0.6,0.5-1.3,0.5-2c0-0.3,0-0.7-0.1-1c-0.8-1.4-1.9-0.4-2.3,0.3
							c-0.8,1.7,0.2,3.5,1.9,4.1c2.2,0.8,5.7-0.7,7.7-1.7c0.3-0.1,1.4,0,0.9,0.3L273.3,68.7z"/>
					</g>
				</g>
				<path opacity="0.31" fill="#1DBCD2" d="M241.7,30.2c-0.1,10.1,6.4,18.4,14.5,18.5c8.1,0.1,14.7-8.1,14.8-18.3
					c0.1-10.1-6.4-18.4-14.5-18.5C248.4,11.9,241.8,20.1,241.7,30.2z"/>
				<path opacity="0.31" fill="#1DBCD2" d="M245.4,25.7c0,4.8,3,8.7,6.9,8.7c3.8,0,6.9-3.8,7-8.6c0-4.8-3-8.7-6.9-8.7
					C248.5,17,245.4,20.9,245.4,25.7z"/>
			</g>
			<g>
				<g>
					<g>
						<path fill="#EC1A57" d="M220.3,70.9c-9.3-12.3-6.5-23.6,2.4-30.3c8.9-6.7,20.5-6.3,29.8,6.1c7.6,10.1,8.6,28.8,6.7,36.7
							c3,0.5,6.5,2.6,7.9,4.4c2,2.7-3,1.3-6.1,3.6c-3.1,2.3-3.1,7.5-5.2,4.8c-1.4-1.8-2.5-5.7-2.1-8.8
							C245.6,87.1,227.9,80.9,220.3,70.9z"/>
						<path opacity="0.37" fill="#EC1A57" d="M253.7,87.4c-3.9-0.2-9.9-1.7-16-4.3c2.2-1,4.4-2.3,6.3-4c9.7-8.7,10.1-24.2,0.9-34.5
							c-3.8-4.2-8.6-6.9-13.6-8c7.1-1.5,14.8,1.3,21.3,10c7.6,10.1,8.6,28.8,6.7,36.7c3,0.5,6.5,2.6,7.9,4.4c2,2.7-3,1.3-6.1,3.6
							c-3.1,2.3-3.1,7.5-5.2,4.8C254.4,94.4,253.3,90.5,253.7,87.4z"/>
					</g>
				</g>
				<g>
					<g>
						<path fill="#072230" d="M260.4,82.4c-1.5,2-4.1,5-6.8,5c-1.9,0-3.8-1.6-3.3-3.6c0.4-1.7,2.4-2.2,3.4-0.6
							c1.4,2.3-0.2,5.5,2.4,7.3c2.8,2,6.5,0.5,9.4,2.3c2.6,1.6,1.8,4,1.9,6.6c0.1,1.7,0.5,3.3,1.2,4.9c0.7,1.6,1.4,2.9,3.3,2.6
							c1.8-0.2,3.9-0.9,4.7,1.2c0.6,1.5,0,3,0.3,4.5c0.5,2.4,2.6,1.5,4,2.6c1.2,1,0.3,1.9,0.2,3.1c-0.1,1.5,1.9,1.7,2.1,3.1
							c0,0.3-0.7,0.6-0.7,0.2c-0.1-1-1.3-1.3-1.9-2.1c-0.5-0.7-0.1-1.4,0.1-2.1c0.5-1.8-1.2-2-2.5-2.4c-1-0.3-1.6-0.8-2-1.8
							c-0.6-1.8,0.8-6-2.1-6.2c-1.5-0.1-3,0.9-4.4,0.1c-1.7-0.9-2.5-3.8-2.8-5.5c-0.2-1.1-0.3-2.3-0.2-3.4c0.1-1.3,0.3-2.6-0.4-3.7
							c-2.7-4.3-10.9-0.1-12.4-5.9c-0.3-1-0.2-2-0.3-3.1c-0.1-0.6-0.1-1.3-0.4-1.8c-0.1-0.2-0.3-0.6-0.5-0.7
							c-1.2-0.8-1.7,0.5-1.7,1.2c0,1.7,1.6,2.7,3.2,2.6c2.1-0.2,4.3-2.9,5.5-4.5c0.2-0.2,1.1-0.5,0.8-0.2L260.4,82.4z"/>
					</g>
				</g>
				<path opacity="0.31" fill="#EC1A57" d="M219,64.1c4.1,8.3,12.8,12.3,19.4,9c6.6-3.3,8.6-12.6,4.5-20.9
					c-4.1-8.3-12.8-12.3-19.4-9C216.9,46.5,214.9,55.8,219,64.1z"/>
				<path opacity="0.31" fill="#EC1A57" d="M220.1,58.9c1.9,3.9,6,5.8,9.1,4.3c3.1-1.5,4.1-5.9,2.1-9.8s-6-5.8-9.1-4.3
					C219.1,50.6,218.2,55,220.1,58.9z"/>
			</g>
		</g>
		<g clip-path="url(#SVGID_2_)">
			<g>
				<g>
					<path fill="#F04879" d="M-14.6,103.4c-6.8-12.5-2.6-22.4,6.4-27.3c9-4.9,19.6-2.9,26.3,9.6c5.5,10.3,3.9,27.4,1,34.4
						c2.7,0.8,5.6,3.3,6.6,5.1c1.5,2.7-2.9,0.8-6.1,2.5c-3.2,1.7-3.9,6.4-5.4,3.7c-1-1.9-1.5-5.6-0.7-8.3
						C6.2,121.7-9.1,113.7-14.6,103.4z"/>
					<path opacity="0.37" fill="#F04879" d="M13.6,123.1c-3.5-0.7-8.8-2.9-14-6.1c2.2-0.6,4.3-1.5,6.3-2.8
						c10.1-6.6,12.6-20.7,5.6-31.4C8.5,78.5,4.4,75.4,0,73.7c6.7-0.4,13.3,3.2,18.1,12c5.5,10.3,3.9,27.4,1,34.4
						c2.7,0.8,5.6,3.3,6.6,5.1c1.5,2.7-2.9,0.8-6.1,2.5c-3.2,1.7-3.9,6.4-5.4,3.7C13.2,129.6,12.8,125.9,13.6,123.1z"/>
				</g>
				<g>
					<g>
						<path fill="#4182D2" d="M20.3,119.4c-1.6,1.6-4.4,4-6.9,3.6c-1.7-0.3-3.2-2-2.5-3.7c0.6-1.5,2.5-1.7,3.2-0.1
							c1,2.3-0.9,5,1.2,7c2.3,2.2,5.9,1.4,8.3,3.4c2.2,1.8,1.1,3.9,0.8,6.2c-0.2,1.5,0,3.1,0.4,4.6c0.4,1.5,0.9,2.8,2.7,2.8
							c1.6,0,3.6-0.3,4.1,1.8c0.3,1.4-0.4,2.8-0.3,4.2c0.1,2.2,2.1,1.7,3.3,3c1,1,0.1,1.8-0.2,2.8c-0.3,1.3,1.5,1.8,1.5,3.1
							c0,0.3-0.7,0.4-0.7,0.1c0-0.9-1-1.4-1.4-2.1c-0.3-0.7,0.1-1.3,0.4-1.9c0.7-1.6-0.8-2-2-2.5c-0.8-0.4-1.4-1-1.5-1.9
							c-0.3-1.7,1.6-5.4-1.1-6c-1.3-0.3-2.9,0.4-4-0.5c-1.4-1-1.7-3.8-1.8-5.4c-0.1-1,0-2.1,0.3-3.1c0.2-1.1,0.7-2.3,0.2-3.4
							c-1.9-4.3-9.9-1.6-10.5-7.1c-0.1-0.9,0.1-1.9,0.1-2.8c0-0.6,0-1.2-0.1-1.7c-0.1-0.2-0.2-0.6-0.4-0.7c-1-0.9-1.6,0.2-1.7,0.9
							c-0.2,1.6,1.1,2.7,2.6,2.8c2,0.1,4.4-2.1,5.7-3.3c0.2-0.2,1.1-0.3,0.8,0L20.3,119.4z"/>
					</g>
				</g>
				<path opacity="0.31" fill="#F04879" d="M-14.9,97c2.6,8.1,10,13,16.4,10.9c6.5-2.1,9.6-10.3,7-18.4c-2.6-8.1-10-13-16.4-10.9
					C-14.4,80.7-17.5,88.9-14.9,97z"/>
			</g>
			<g>
				<g>
					<g>
						<path fill="#1DBCD2" d="M13.4,115.8c-3.7-13.7,2.5-22.4,12.4-25.1c9.9-2.7,19.7,1.6,23.5,15.3c3.1,11.2-2.4,27.6-6.8,33.7
							c2.5,1.4,4.7,4.4,5.2,6.5c0.8,3-3,0.1-6.5,1c-3.5,0.9-5.3,5.4-6.1,2.4c-0.6-2-0.2-5.8,1.2-8.2C29.5,138.3,16.5,127,13.4,115.8
							z"/>
						<path opacity="0.37" fill="#1DBCD2" d="M36.4,141.4c-3.3-1.5-8-4.8-12.3-9.1c2.2-0.1,4.5-0.5,6.7-1.3
							c11.3-4.2,16.9-17.3,12.5-29.3c-1.8-4.9-5-8.9-9-11.5c6.6,1.2,12.2,6.2,14.9,15.8c3.1,11.2-2.4,27.6-6.8,33.7
							c2.5,1.4,4.7,4.4,5.2,6.5c0.8,3-3,0.1-6.5,1c-3.5,0.9-5.3,5.4-6.1,2.4C34.6,147.6,35,143.9,36.4,141.4z"/>
					</g>
				</g>
				<g>
					<g>
						<path fill="#072230" d="M43.8,139.3c-2,1.2-5.2,2.9-7.5,2c-1.6-0.6-2.7-2.6-1.6-4.2c1-1.3,2.8-1,3.1,0.6
							c0.4,2.5-2,4.6-0.4,7.1c1.7,2.6,5.4,2.7,7.3,5.2c1.7,2.2,0.2,4-0.6,6.3c-0.5,1.5-0.7,3-0.7,4.6c0.1,1.6,0.3,3,2,3.4
							c1.6,0.4,3.6,0.5,3.6,2.7c0,1.4-1,2.6-1.3,4c-0.4,2.2,1.7,2.2,2.6,3.6c0.7,1.2-0.3,1.7-0.8,2.7c-0.6,1.2,1.1,2.1,0.7,3.4
							c-0.1,0.3-0.8,0.3-0.7-0.1c0.2-0.9-0.7-1.6-0.9-2.4c-0.2-0.8,0.3-1.2,0.8-1.8c1.1-1.4-0.4-2.1-1.4-2.9
							c-0.7-0.6-1.1-1.3-1.1-2.2c0.1-1.8,2.8-4.9,0.3-6.1c-1.2-0.6-2.9-0.3-3.8-1.4c-1.1-1.3-0.8-4.1-0.5-5.7c0.2-1,0.5-2,1-3
							c0.5-1.1,1.2-2.1,0.9-3.3c-0.8-4.6-9.3-3.8-8.7-9.3c0.1-0.9,0.5-1.8,0.7-2.7c0.2-0.5,0.3-1.1,0.2-1.7c0-0.2-0.1-0.6-0.2-0.8
							c-0.8-1.1-1.6-0.2-1.9,0.5c-0.5,1.5,0.4,2.9,1.9,3.3c1.9,0.5,4.7-1,6.3-2c0.2-0.1,1.1-0.1,0.8,0.1L43.8,139.3z"/>
					</g>
				</g>
				<path opacity="0.31" fill="#1DBCD2" d="M14.6,109.5c0.7,8.5,6.8,14.9,13.5,14.4c6.8-0.6,11.7-7.9,11-16.4
					c-0.7-8.5-6.8-14.9-13.5-14.4C18.8,93.7,13.9,101,14.6,109.5z"/>
				<path opacity="0.31" fill="#1DBCD2" d="M17.3,105.5c0.3,4,3.2,7,6.4,6.8c3.2-0.3,5.5-3.7,5.2-7.7c-0.3-4-3.2-7-6.4-6.8
					C19.3,98,16.9,101.5,17.3,105.5z"/>
			</g>
			<g>
				<g>
					<g>
						<path fill="#EC1A57" d="M-0.3,145.1c-8.7-9.6-7.1-19.2-0.2-25.5c6.9-6.3,16.7-6.8,25.3,2.8c7.1,7.9,9.3,23.4,8.3,30.2
							c2.6,0.2,5.6,1.7,6.9,3.1c1.9,2.1-2.4,1.3-4.8,3.5c-2.4,2.2-2.1,6.5-4,4.4c-1.3-1.4-2.5-4.6-2.4-7.2
							C22,156.8,6.8,153-0.3,145.1z"/>
						<path opacity="0.37" fill="#EC1A57" d="M28.8,156.5c-3.3,0.1-8.4-0.6-13.7-2.4c1.8-1,3.5-2.2,4.9-3.8c7.5-8,6.7-21-1.8-28.9
							c-3.5-3.2-7.7-5.1-12-5.7c5.8-1.8,12.5,0,18.6,6.8c7.1,7.9,9.3,23.4,8.3,30.2c2.6,0.2,5.6,1.7,6.9,3.1
							c1.9,2.1-2.4,1.3-4.8,3.5c-2.4,2.2-2.1,6.5-4,4.4C30,162.2,28.7,159,28.8,156.5z"/>
					</g>
				</g>
				<path opacity="0.31" fill="#EC1A57" d="M-1.9,139.5c4,6.6,11.6,9.3,16.9,6.1c5.3-3.2,6.3-11.2,2.2-17.8
					c-4-6.6-11.6-9.3-16.9-6.1C-5,125-6,132.9-1.9,139.5z"/>
				<path opacity="0.31" fill="#EC1A57" d="M-1.4,135.1c1.9,3.1,5.5,4.4,7.9,2.9c2.5-1.5,3-5.3,1.1-8.4c-1.9-3.1-5.5-4.4-7.9-2.9
					C-2.8,128.3-3.3,132-1.4,135.1z"/>
			</g>
		</g>
		<polygon clip-path="url(#SVGID_2_)" fill="#EC1A57" points="109.7,58.9 119,43.9 135.8,57.4 		"/>
		<g clip-path="url(#SVGID_2_)">
			
				<text transform="matrix(1 0 0 1 72.7028 90.1569)" fill="#FFCA32" font-family="'HiraKakuStdN-W8-83pv-RKSJ-H'" font-size="18px">安くて良い！</text>
		</g>
		<polygon clip-path="url(#SVGID_2_)" fill="#1DBCD2" points="193.9,137.6 179.2,147.9 164.5,122.2 		"/>
		<rect x="239.1" y="107.8" clip-path="url(#SVGID_2_)" fill="#EC1A57" width="47.5" height="39.4"/>
		<rect x="239.1" y="103" clip-path="url(#SVGID_2_)" fill="#F04879" width="44.6" height="41.4"/>
		<g clip-path="url(#SVGID_2_)">
			<g>
				<text transform="matrix(1 0 0 1 243.3581 121.7152)"><tspan x="0" y="0" fill="#FFFFFF" font-family="'HiraKakuStd-W8-83pv-RKSJ-H'" font-size="18px">トモ</tspan><tspan x="0" y="21.6" fill="#FFFFFF" font-family="'HiraKakuStd-W8-83pv-RKSJ-H'" font-size="18px">買い</tspan></text>
			</g>
		</g>
	</g>
</g>
</svg>
