<svg xmlns="http://www.w3.org/2000/svg" xmlns:xlink="http://www.w3.org/1999/xlink" viewBox="0 0 203.25 135.47"><defs><style>.cls-1{fill:none;}.cls-12,.cls-2{fill:#fc490b;}.cls-3{clip-path:url(#clip-path);}.cls-4{fill:#c97f2c;}.cls-18,.cls-5{fill:#fff;}.cls-6{fill:#f1f1f1;}.cls-7{fill:#e1bc4a;}.cls-8{font-size:18px;letter-spacing:-0.06em;}.cls-12,.cls-18,.cls-8{font-family:HiraKakuStdN-W8-83pv-RKSJ-H, Hiragino Kaku Gothic StdN;}.cls-9{letter-spacing:-0.03em;}.cls-10{letter-spacing:-0.01em;}.cls-11{letter-spacing:-0.01em;}.cls-12{font-size:7px;letter-spacing:-0.06em;}.cls-13{letter-spacing:-0.05em;}.cls-14{letter-spacing:-0.06em;}.cls-15{letter-spacing:-0.04em;}.cls-16{letter-spacing:-0.02em;}.cls-17{letter-spacing:-0.03em;}.cls-18{font-size:14px;}.cls-19{letter-spacing:-0.02em;}.cls-20{letter-spacing:-0.08em;}.cls-21{letter-spacing:-0.11em;}.cls-22{letter-spacing:-0.06em;}</style><clipPath id="clip-path" transform="translate(9.04 56.21)"><rect class="cls-1" width="163.18" height="73.02"/></clipPath></defs><g id="OBJECTS"><rect class="cls-2" x="9.04" y="56.21" width="163.18" height="75.23"/><g class="cls-3"><path class="cls-4" d="M4.78,60.1,3,61.79,11.3,77.5a2.12,2.12,0,0,0,2.52,1c3.08-.82,5.49-5.85,4.26-8.19l-6.63-12.6Z" transform="translate(9.04 56.21)"/><path class="cls-5" d="M13.82,78.47h0a2.12,2.12,0,0,1-2.52-1L3,61.79l6.67-2.42L16.34,72A4.51,4.51,0,0,1,13.82,78.47Z" transform="translate(9.04 56.21)"/><path class="cls-5" d="M3.86,60.68l-3,1.1A5.21,5.21,0,0,1-5.4,59.37l-3.16-6A3.74,3.74,0,0,1-6.46,48l3-1.11Z" transform="translate(9.04 56.21)"/><path class="cls-5" d="M-5.2,47.31a1.31,1.31,0,0,0-.88,1c-.14,1.13-.07,3.47,1.8,7a14.68,14.68,0,0,0,5,5.87,1.8,1.8,0,0,0,1.53.18c18.81-6.55,43.48-4.68,43.48-4.68L37.11,40.39,28.49,24S13.38,40.31-5.2,47.31Z" transform="translate(9.04 56.21)"/><path class="cls-4" d="M28.07,23.11c-2.13.38-2.79,3.26-2.44,5.31A48.82,48.82,0,0,0,30.74,42.7,46.53,46.53,0,0,0,39.8,55.32a10.16,10.16,0,0,0,3.92,2.58c4.47,1.22,4.19-4.16,3.76-6.6a45.49,45.49,0,0,0-4.82-12.92A53.44,53.44,0,0,0,35.4,27.61a16.21,16.21,0,0,0-5.06-4.11A3.9,3.9,0,0,0,28.07,23.11Z" transform="translate(9.04 56.21)"/><ellipse class="cls-6" cx="37.29" cy="40.32" rx="5.33" ry="17.88" transform="translate(-5.68 78.9) rotate(-28.52)"/><path class="cls-7" d="M12.4,58.73c-1.64-1.2-3.78-4-5.57-7.37S4.05,44.78,4.1,43a1.78,1.78,0,0,1,.51-1.41A70.68,70.68,0,0,1-5.65,46.47a2.15,2.15,0,0,0-1.43,1.71c-.15,1.18-.1,3.73,1.9,7.54A15.76,15.76,0,0,0,.2,62a2.92,2.92,0,0,0,2.47.29A76,76,0,0,1,14,59.38,2.59,2.59,0,0,1,12.4,58.73Z" transform="translate(9.04 56.21)"/><polygon class="cls-7" points="13.85 97.64 13.84 97.65 13.85 97.64 13.85 97.64"/><path class="cls-7" d="M14.23,59.34h0Z" transform="translate(9.04 56.21)"/><path d="M4.61,41.55l.19-.11A1.18,1.18,0,0,0,4.61,41.55Z" transform="translate(9.04 56.21)"/><path d="M14.16,59.35l-.15,0A.37.37,0,0,0,14.16,59.35Z" transform="translate(9.04 56.21)"/><path class="cls-4" d="M14.91,58.27l-1.12.2h0c-.69-.09-3.33-2.3-6-7.44S4.87,42.8,5.26,42.31h0l.94-.55a1.75,1.75,0,0,0-1.4-.31h0l-.19.11A1.78,1.78,0,0,0,4.1,43c0,1.82.93,5,2.73,8.4s3.93,6.17,5.57,7.37a2.59,2.59,0,0,0,1.61.65l.15,0h.08A1.2,1.2,0,0,0,14.91,58.27Z" transform="translate(9.04 56.21)"/><path d="M13.79,58.48h0Z" transform="translate(9.04 56.21)"/><path d="M5.26,42.31l0,0h0S5.26,42.3,5.26,42.31Z" transform="translate(9.04 56.21)"/><path class="cls-7" d="M42.35,43.91a7.93,7.93,0,0,0-1.16-4.64,9.63,9.63,0,0,0-3.31-3.86,1.78,1.78,0,0,0-1.52-.18,47.11,47.11,0,0,1-6.56,1.71,55.52,55.52,0,0,0,2.43,5.22,56.58,56.58,0,0,0,3.35,5.59A41.93,41.93,0,0,1,41.48,45,1.31,1.31,0,0,0,42.35,43.91Z" transform="translate(9.04 56.21)"/><path class="cls-5" d="M37.2,35.47c-.53.09-.68.82-.59,1.34a12.7,12.7,0,0,0,1.32,3.63,12.14,12.14,0,0,0,2.29,3.22,2.62,2.62,0,0,0,1,.66c1.11.32,1-1,.91-1.66a12,12,0,0,0-1.24-3.29A14.2,14.2,0,0,0,39,36.62a4.18,4.18,0,0,0-1.27-1A.94.94,0,0,0,37.2,35.47Z" transform="translate(9.04 56.21)"/><path class="cls-4" d="M40.79,39.4c1.17,2.22,1.56,4.23.87,4.48s-2.2-1.35-3.37-3.58-1.56-4.23-.87-4.48S39.62,37.17,40.79,39.4Z" transform="translate(9.04 56.21)"/><path class="cls-5" d="M64.08-37.15c-3,2.61-6.82,4.16-10.33,6.11C50-29,47-26.32,45.72-22.35,43.44-15,47.14-7.8,49.27-.51a22.61,22.61,0,0,1,.94,10.59,14.33,14.33,0,0,1-2,5.24,19.38,19.38,0,0,1-4.47,4.38c-3.53,2.73-7.5,5.95-6.67,10.82.57,3.32,2.81,6.36,2,9.69a42.2,42.2,0,0,1,4.64-.51c12.68-.66,24.48,5,36,10A98.72,98.72,0,0,0,97.94,56.1a46.79,46.79,0,0,0,9.75,1.16,68.75,68.75,0,0,0,8.63-.64c5.28-.67,10.45-1.75,15.77-2.26a47.14,47.14,0,0,1,16.27,1.06,93,93,0,0,1,14.13,5.24c1.56.69,3.12,1.4,4.69,2.08l27-69.81L67.27-56.21C70.18-49.62,69.38-41.81,64.08-37.15Z" transform="translate(9.04 56.21)"/></g><text class="cls-8" transform="translate(75.51 82.48)">シェ<tspan class="cls-9" x="33.7" y="0">ア</tspan><tspan class="cls-10" x="51.19" y="0">買</tspan><tspan class="cls-11" x="69" y="0">い</tspan></text><text class="cls-12" transform="translate(119.5 96.29)">シェ<tspan class="cls-13" x="13.1" y="0">ア</tspan><tspan class="cls-14" x="19.78" y="0">す</tspan><tspan class="cls-15" x="26.39" y="0">る</tspan><tspan class="cls-16" x="33.08" y="0">だ</tspan><tspan class="cls-17" x="39.94" y="0">け</tspan></text><text class="cls-18" transform="translate(50.63 127.8)"><tspan class="cls-19">ポ</tspan><tspan class="cls-20" x="13.75" y="0">イ</tspan><tspan class="cls-21" x="26.66" y="0">ン</tspan><tspan class="cls-22" x="39.13" y="0">ト</tspan><tspan x="52.32" y="0">獲得</tspan></text></g></svg>