<?xml version="1.0" encoding="utf-8"?>
<!-- Generator: Adobe Illustrator 25.0.0, SVG Export Plug-In . SVG Version: 6.00 Build 0)  -->
<svg version="1.1" id="レイヤー_1" xmlns="http://www.w3.org/2000/svg" xmlns:xlink="http://www.w3.org/1999/xlink" x="0px"
	 y="0px" viewBox="0 0 1074.4 584.2" style="enable-background:new 0 0 1074.4 584.2;" xml:space="preserve">
<style type="text/css">
	.st0{fill:#F2F2F2;}
	.st1{fill:#2F2E41;}
	.st2{fill:#F0643B;}
	.st3{fill:none;stroke:#3F3D56;stroke-miterlimit:10;}
	.st4{opacity:0.1;enable-background:new    ;}
	.st5{fill:#3F3D56;}
	.st6{fill:#FBBEBE;}
	.st7{fill:#57B894;}
	.st8{fill:#FFFFFF;}
	.st9{opacity:0.3;fill:#F0643B;enable-background:new    ;}
	.st10{fill:#ECC426;}
	.st11{fill:#E06632;}
	.st12{fill:#D23518;}
	.st13{fill:#3A3A3B;}
</style>
<ellipse class="st0" cx="540.6" cy="549.3" rx="527.5" ry="34.9"/>
<path class="st1" d="M520.4,167c-85.9,0-147.7,55.1-147.7,183.8c0,145.8,61.7,184.4,147.7,184.4s151.3-42.3,151.3-184.4
	C671.8,198.9,606.4,167,520.4,167L520.4,167z M521,486.8c-59.5,0-90.6-34.9-90.6-135.9c0-89.1,32.4-136.1,91.9-136.1
	s91.9,30.9,91.9,136.1C614.2,449.3,580.5,486.8,521,486.8z"/>
<path class="st2" d="M321.3,433.5h-35.5V328.9c0-11.6-9.4-21-21-21h-8.3c-11.6,0-21,9.4-21,21v104.6H135.3c-6.6,0-12-5.4-12-12
	c0-1.9,0.5-3.9,1.4-5.6l106.1-200.8c5.4-10.2,1.5-22.9-8.7-28.3c-0.3-0.1-0.6-0.3-0.8-0.4l-6.3-3c-10.1-4.8-22.2-0.8-27.4,9.1
	l-129.4,242c-2.2,4.1-3.4,8.7-3.4,13.4c0,15.7,12.7,28.4,28.4,28.4c0,0,0,0,0,0h152.3v66.2c0,13.9,11.2,25.1,25.1,25.1c0,0,0,0,0,0
	c13.9,0,25.1-11.2,25.1-25.1c0,0,0,0,0,0v-66.2h35.5c11.8,0,21.4-9.6,21.4-21.4S333.2,433.5,321.3,433.5L321.3,433.5z M979.3,433.5
	h-35.5V328.9c0-11.6-9.4-21-21-21h-8.3c-11.6,0-21,9.4-21,21v104.6H793.3c-6.6,0-12-5.4-12-12c0-1.9,0.5-3.9,1.4-5.6l106.1-200.8
	c5.4-10.2,1.5-22.9-8.7-28.3c-0.3-0.1-0.6-0.3-0.8-0.4l-6.3-3c-10.1-4.8-22.2-0.8-27.4,9.1l-129.4,242c-2.2,4.1-3.4,8.7-3.4,13.4
	c0,15.7,12.7,28.4,28.4,28.4c0,0,0,0,0,0h152.3v66.2c0,13.9,11.2,25.1,25.1,25.1c0,0,0,0,0,0c13.9,0,25.1-11.2,25.1-25.1v-66.2h35.5
	c11.8,0,21.4-9.6,21.4-21.4S991.2,433.5,979.3,433.5L979.3,433.5z"/>
<path class="st3" d="M331.1,421.3h-35.5V316.6c0-11.6-9.4-21-21-21h-8.3c-11.6,0-21,9.4-21,21v104.6H145.1c-6.6,0-12-5.4-12-12
	c0-1.9,0.5-3.9,1.4-5.6l106.1-200.8c5.4-10.2,1.5-22.9-8.7-28.3c-0.3-0.1-0.6-0.3-0.8-0.4l-6.3-3c-10.1-4.8-22.2-0.8-27.4,9.1
	L68,422.3c-2.2,4.1-3.4,8.7-3.4,13.4c0,15.7,12.7,28.4,28.4,28.4c0,0,0,0,0,0h152.3v66.2c0,13.9,11.2,25.1,25.1,25.1c0,0,0,0,0,0
	c13.9,0,25.1-11.2,25.1-25.1c0,0,0,0,0,0v-66.2h35.5c11.8,0,21.4-9.6,21.4-21.4S343,421.3,331.1,421.3L331.1,421.3z M997.7,421.3
	h-35.5V316.6c0-11.6-9.4-21-21-21h-8.3c-11.6,0-21,9.4-21,21v104.6H811.7c-6.6,0-12-5.4-12-12c0-1.9,0.5-3.9,1.4-5.6l106.1-200.8
	c5.4-10.2,1.5-22.9-8.7-28.3c-0.3-0.1-0.6-0.3-0.8-0.4l-6.3-3c-10.1-4.8-22.2-0.8-27.4,9.1l-129.4,242c-2.2,4.1-3.4,8.7-3.4,13.4
	c0,15.7,12.7,28.4,28.4,28.4h152.3v66.2c0,13.9,11.2,25.1,25.1,25.1c13.9,0,25.1-11.2,25.1-25.1c0,0,0,0,0,0v-66.2h35.5
	c11.8,0,21.4-9.6,21.4-21.4S1009.5,421.3,997.7,421.3z M540,156c-85.9,0-147.6,55.1-147.6,183.8c0,145.8,61.7,184.4,147.6,184.4
	s151.3-42.3,151.3-184.4C691.4,187.8,626,156,540,156L540,156z M540.6,475.8c-59.5,0-90.6-34.9-90.6-135.9
	c0-89.1,32.4-136.1,91.9-136.1s91.9,30.9,91.9,136.1C633.8,438.3,600.1,475.8,540.6,475.8L540.6,475.8z"/>
<circle class="st1" cx="471.1" cy="18.2" r="12.9"/>
<ellipse class="st1" cx="502.6" cy="46.9" rx="36.2" ry="46.9"/>
<path class="st4" d="M502.6,79.6c-18.1,0-33.1-17.3-35.8-39.8c-0.3,2.4-0.4,4.7-0.4,7.1c0,25.9,16.2,46.9,36.2,46.9
	s36.2-21,36.2-46.9c0-2.4-0.1-4.7-0.4-7.1C535.7,62.3,520.7,79.6,502.6,79.6L502.6,79.6z"/>
<path class="st5" d="M576.2,184.2c-0.8,3.2-4.1,5.8-7.8,7.5c-7.8,3.8-17.4,4.9-26.8,5.3c-2.4,0.1-4.8,0.1-7.1-0.1
	c-4.6-0.4-8.9-2.4-12.2-5.6c-0.8-0.5-1-1.5-0.5-2.3c0.1-0.2,0.3-0.4,0.5-0.5c5-5.5,13.3-8.8,21.6-11.2c6.3-1.8,17.4-6.6,24.3-5.9
	C574.9,171.9,577.2,180.2,576.2,184.2L576.2,184.2z"/>
<path class="st4" d="M576.2,184.2c-0.8,3.2-4.1,5.8-7.8,7.5c-7.8,3.8-17.4,4.9-26.8,5.3c-2.4,0.1-4.8,0.1-7.1-0.1
	c-4.6-0.4-8.9-2.4-12.2-5.6c-0.8-0.5-1-1.5-0.5-2.3c0.1-0.2,0.3-0.4,0.5-0.5c5-5.5,13.3-8.8,21.6-11.2c6.3-1.8,17.4-6.6,24.3-5.9
	C574.9,171.9,577.2,180.2,576.2,184.2L576.2,184.2z"/>
<path class="st5" d="M477,160.3c-2.4,4.7-2.8,10.1-1.2,15.1c1.6,4.9,4.7,9.3,8.8,12.5c10.1,8.1,24,9.2,36.9,9.1
	c11.3-0.1,22.7-0.9,33.9-2.3c3.8-0.3,7.5-1.2,11-2.6c4.2-1.8,7.9-5.2,9.4-9.5s0.4-9.7-3.1-12.6c-3.1-2.6-7.5-2.9-11.5-3.1l-23.1-1.4
	c2.3-2.3,5.3-3.6,8.1-5.3c3.7-2.2,6.1-6,8.8-9.3c4.1-4.9,8.6-9.6,13.4-13.8c0.8,4.3,3.5,7.9,6.7,10.8s6.9,5.4,10.2,8.2
	c8.1,6.9,13.9,16.2,22.4,22.5c5.8-1.5,11.3-4.3,16-8l-3.3-6c-0.3-0.6-0.7-1.2-1.2-1.6c-0.9-0.6-2.1-0.3-3.2-0.4
	c-2.9-0.4-4.2-3.8-5.3-6.5c-3.1-7.4-9.1-13.2-14.2-19.4c-3.8-4.6-7.1-9.5-10-14.7c-1.7-3.1-3.3-6.3-5.6-9s-5.6-4.8-9.1-4.8
	c-3.1,0-6,1.6-8.7,3.2c-8.2,4.9-16.1,10.2-23.6,16.1c-3.9,3.1-7.9,6.3-12.5,8.2c-1.9,0.8-4,1.3-5.9,2.3c-3.3,1.7-5.8,4.5-8.4,7.1
	C503.2,154,490.2,159.9,477,160.3L477,160.3z"/>
<path class="st6" d="M525.3,96.1c-0.1,2.8-0.7,5.5-1.7,8c-1.1,2.6-3.2,4.6-5.8,5.6c-1.8,0.5-3.8,0.6-5.6,0.2
	c-1.6-0.2-3.2-0.7-4.6-1.6c-2.2-1.5-3.2-4.1-3.6-6.7c-0.4-2.6-0.2-5.2-0.5-7.9c-0.2-2.1-0.6-4.2-1.2-6.3c-0.2-0.7-0.3-1.4-0.5-2
	c-0.2-0.7-0.3-1.4-0.5-2c-0.1-0.6-0.3-1.3-0.4-1.9c-0.1-0.5-0.2-1.1-0.2-1.6c-0.1-1.6-0.3-3.3-0.8-4.8c-0.5-1-1-2-1.7-2.9
	c-0.3-0.4-0.6-0.8-0.8-1.2c-0.7-1.1-1.1-2.4-1-3.7c0-0.2,0.1-0.4,0.1-0.6c0-0.1,0.1-0.2,0.1-0.2c0.6-0.2,1-0.6,1.2-1.1
	c0.1-0.6,0.1-1.2-0.1-1.8c-0.2-0.8-0.6-1.6-1-2.3c-0.3-0.5-1.2-1.3-1.2-1.9c0-1.1,2.1-2,3-2.4c2.7-1.3,5.6-1.9,8.6-1.7
	c1.9,0.1,4,0.7,5,2.3c0.9,1.4,0.8,3.3,1.2,5c0,0.2,0.1,0.5,0.3,0.7c0.2,0.2,0.5,0.3,0.7,0.3c0.5,0.1,0.9,0.1,1.4,0.1h0
	c0.1,0,0.2,0,0.4-0.1c0.7-0.1,1.4-0.4,2-0.9c0.4-0.1,0.8-0.2,1.2-0.3c0,0,0,0,0,0c1.6,5,1.8,10.3,3.1,15.4c0.6,2.5,1.6,5,1.7,7.6
	c0,0.1,0,0.2,0,0.3c0,0.8,0,1.7,0,2.5c0,0.4,0.1,0.7,0.1,1.1c0.1,0.6,0.3,1.2,0.5,1.7l0,0c0.1,0.2,0.1,0.4,0.2,0.6
	c0,0.1,0.1,0.3,0.1,0.4l0,0C525.4,93.3,525.5,94.7,525.3,96.1z"/>
<circle class="st6" cx="503.2" cy="45" r="18.6"/>
<path class="st6" d="M621.1,146.1c-0.5-5.1-2.3-9.9-5.2-14.1c0.5,2.9,1,5.7,1.4,8.6c-1.2,0.4-2.6-0.1-3.4-1c-0.8-1-1.4-2.1-1.8-3.3
	c-2.1-5.2-4.9-10.2-8.2-14.7c-11.8-1-23.5-5.9-33.9-11.6c-10.4-5.7-20.1-12.6-30.4-18.5c-1.8-1.1-3.6-2-5.5-2.8
	c-3.2-1.3-6.8-2-9.9-3.5c-0.2-0.1-0.4-0.2-0.6-0.3c-0.7-0.4-1.3-0.8-1.9-1.3c-0.3-0.3-0.6-0.6-0.9-0.9c-1.5-1.8-2.7-3.8-3.6-6
	c-1.6-3.6-2.2-8-3.8-11.6c0.7-0.7,1.6-1.3,2.5-1.8h0c0.1-0.1,0.3-0.1,0.4-0.2c0.6-0.3,1.3-0.5,2-0.7c0.4-0.1,0.8-0.2,1.2-0.3
	c0,0,0,0,0,0c1.8-0.3,3.7-0.2,5.5,0.4c2.6,0.9,4.8,2.6,6.9,4.3c3.5,2.5,6.9,5.2,10.1,8.1c1.8,1.7,3.4,3.6,5.4,5.2
	c1.6,1.2,3.3,2.4,5.1,3.4c10.4,6.2,20.9,12.4,31.3,18.7c3.5,2.1,7.1,4.2,10.5,6.4c5.2,3.4,10.3,7.1,15.4,10.7c3,2.2,6,4.3,8.9,6.5
	c1,0.6,1.8,1.4,2.5,2.3c0.6,1.1,1,2.2,1.1,3.4C623.1,136.4,622.7,141.4,621.1,146.1L621.1,146.1z"/>
<path class="st2" d="M529.9,110.1c-1.3,5.6-6.9,9-9.9,13.9c-3.7,6.1-2.2,13.2-0.8,20.3c-2.5,2.2-5.1,4.4-7.6,6.5
	c-1.4,1.2-2.8,2.4-4.3,3.5c-2.2,1.5-4.5,2.8-6.9,3.9c-2.2,1.2-4.5,2.3-6.7,3.5c-2.1,1.2-4.3,2.1-6.6,2.8c-4.4,1.1-9.1,0.3-13.5-1
	c-0.5-0.1-1-0.3-1.5-0.6c-0.3-0.2-0.5-0.4-0.7-0.6c-0.4-0.8-0.6-1.7-0.4-2.5c0.4-7.4,2.2-14.5,4-21.7c1-4.3,2.2-8.5,3.8-12.6
	c1.6-3.5,3.4-6.9,5.4-10.2c2.2-4.1,4.9-8,7.9-11.5c1.5-1.4,2.7-3,3.7-4.7c1.1-2.5,0.7-5.5,0.9-8.2c0.2-2.1,0.7-4.1,1.6-6v0
	c0.5-1,1.1-2,1.7-2.9l0.9,2.1c0.2,0.5,0.4,0.9,0.6,1.4c0.3,0.6,0.5,1.2,0.8,1.8l2.2,5.1c0.8,2.1,1.9,4.2,3.3,5.9
	c2.1,2.9,6.1,3.6,9.1,1.6c0.9-0.6,1.6-1.4,2.1-2.4c1.1-1.9,1.8-3.9,2.3-6c0.6-2.6,0.7-5.2,0.3-7.8c-0.8-5-2.9-10.1-4.4-14.8
	c-0.6-1.6-1-3.2-1.1-4.9c0-0.2,0-0.4,0.1-0.6l0-0.1c0.6-0.3,1.3-0.5,2-0.7c0.4-0.1,0.8-0.2,1.2-0.3c1.4,7.4,2.7,14.8,4.1,22.1
	c0,0.2,0.1,0.3,0.1,0.5c0.2,1.1,0.4,2.1,0.6,3.2c0.2,1,0.4,1.9,0.7,2.9l0,0c0.1,0.3,0.2,0.6,0.3,1l0,0c0.2,0.9,0.5,1.7,0.8,2.6
	C527.9,99.6,531.1,104.7,529.9,110.1L529.9,110.1z"/>
<path class="st5" d="M605.3,189c-0.1,1.1,0.2,2.2,0.6,3.1c1.2,2.1,4,2.6,6.4,2.8c14.1,1.2,28.3,0.7,42.3-1.3
	c0.8-0.1,1.5-0.3,2.2-0.7c2-1.4,0.8-4.8-1.4-5.9s-4.8-0.8-7.1-1.3c-2.4-0.6-4.6-1.6-6.7-2.9c-4.8-2.8-9.6-5.7-14.3-8.7
	c-2.8-1.8-6.1-3.7-9.2-2.6C609.4,174.5,605.2,179.8,605.3,189L605.3,189z"/>
<path class="st6" d="M501.4,83L501.4,83c0,0.1,0,0.3-0.1,0.4c0,0.2-0.1,0.4-0.1,0.6c-0.4,2-0.9,4-1.4,6c-1.5,5.5-3.5,10.8-5.5,16.1
	l-16.2,42.6c-1.4,3.6-2.7,7.2-4.3,10.7c-0.5,1.2-1,2.3-1.6,3.5c-1.9,4.3-3.7,8.7-4.3,13.2c-0.6,3-0.6,6-0.2,9c0.6,3,2.4,5.9,5.2,7
	c1.4,0.5,3.4,1.3,3,2.7c-0.2,0.8-1.1,1.2-1.9,1.3c-2.1,0.3-4.3-0.3-6-1.7c-1.5-1.3-2.7-3.4-4.7-3.6c-1.4-0.2-2.7,0.7-3.9,1.3
	c-5.2,2.4-11.2,0.7-16.7-1c0.4-2.2,2.6-3.7,4.8-4.1c2.2-0.4,4.5-0.1,6.7-0.2c0.7,0,1.4-0.1,2-0.5c0.5-0.5,0.9-1.2,1.1-1.9
	c1.4-4.3,2.5-8.7,3.2-13.1c0.7-4.7,1-9.4,2.1-14c0.8-3.6,2-7.1,3.1-10.6c2.1-7.3,3.7-14.6,5.1-22.1c0.7-3.1,1.1-6.2,1.4-9.4
	c0.2-2.6,0.1-5.2,0.3-7.8c0.4-3.4,1.1-6.7,2.1-10l2.9-10.7c1.4-5.3,3-10.7,6.6-14.8c2.5-2.9,6.2-4.7,10-4.8c0.7,0,1.4,0.1,2.1,0.2
	c0.1,0,0.2,0.1,0.3,0.1c0.8,0.2,1.5,0.5,2.2,0.9c1.1-0.7,1.7-0.5,2.4,0.6c0.6,1.2,1,2.5,0.9,3.8C502.3,76.1,502,79.6,501.4,83
	L501.4,83z"/>
<path class="st2" d="M502.6,87.2L502.6,87.2l-0.3,0.3l-2.5,2.5l-1.2-5.2l-4.2-17.9c0.7,0,1.4,0.1,2.1,0.2c0-0.2,0.1-0.4,0.1-0.6
	l0.2,0.7l1.4,4.9l2.7,9.3l0.5,1.5v0L502.6,87.2z"/>
<path class="st1" d="M518.7,30.2c0,3.3-1.3,6.5-3.7,8.9c-0.4,0.4-0.9,0.8-1.4,1.2c-2.2,1.6-4.8,2.5-7.5,2.5H491
	c-7,0-12.6-5.6-12.6-12.6S484,17.6,491,17.6l0,0h15.1C513,17.6,518.6,23.3,518.7,30.2z"/>
<circle class="st1" cx="532.8" cy="18.2" r="12.9"/>
<path class="st4" d="M532.5,5.3c-0.2,0-0.3,0-0.5,0c7.1,0.3,12.7,6.2,12.4,13.4c-0.2,6.8-5.7,12.2-12.4,12.4c0.2,0,0.3,0,0.5,0
	c7.1,0,12.9-5.8,12.9-12.9S539.6,5.3,532.5,5.3L532.5,5.3z M471.1,5.3c0.2,0,0.3,0,0.5,0c-7.1,0.3-12.7,6.2-12.4,13.4
	c0.2,6.8,5.7,12.2,12.4,12.4c-0.2,0-0.3,0-0.5,0c-7.1,0-12.9-5.8-12.9-12.9S464,5.3,471.1,5.3L471.1,5.3z M513.6,40.3
	c-2.2,1.6-4.8,2.5-7.5,2.5H491c-2.7,0-5.4-0.9-7.5-2.5H513.6z"/>
<path class="st6" d="M611.1,133.8c0,0,3.3,9.4,6.2,6.9l-2.4-12.2L611.1,133.8z"/>
<path class="st7" d="M1006.9,419.5c10.8,3.9,22.7-1.6,26.7-12.4c3.9-10.8-1.6-22.7-12.4-26.7c-3.7-1.3-7.6-1.6-11.5-0.8l0.5,10.7
	l-5.1-9.2c-5,2.3-8.8,6.6-10.7,11.7c-0.7,1.8-1.1,3.7-1.2,5.6C992.6,407.8,998.1,416.4,1006.9,419.5L1006.9,419.5z"/>
<path class="st3" d="M1031.9,543.8c-1.8-9.1,6-17.2,13.6-22.4s16.6-10.4,19.2-19.3c3.8-12.8-7.4-24.5-16.1-34.6
	c-6.5-7.5-12-15.7-16.5-24.6c-1.8-3.5-3.5-7.2-4-11.2c-0.7-5.7,1.1-11.3,3-16.7c6.1-18,12.7-35.9,19.6-53.6"/>
<path class="st3" d="M1007.7,416.8c10.8,3.9,22.7-1.6,26.7-12.4c3.9-10.8-1.6-22.7-12.4-26.7c-3.7-1.3-7.6-1.6-11.5-0.8l0.5,10.7
	l-5.1-9.2c-5,2.3-8.8,6.6-10.7,11.7c-0.7,1.8-1.1,3.7-1.2,5.6C993.4,405,999,413.6,1007.7,416.8L1007.7,416.8z"/>
<path class="st7" d="M1029.4,357.6c2.4-6.7,8.1-11.6,15-13.2l1.7,10.2l3.2-10.7c11.5,0.2,20.7,9.6,20.5,21.1
	c-0.2,11.5-9.6,20.7-21.1,20.5c-11.5-0.2-20.7-9.6-20.5-21.1C1028.2,362.1,1028.6,359.8,1029.4,357.6L1029.4,357.6z"/>
<path class="st3" d="M1030.5,353.9c2.4-6.7,8.1-11.6,15-13.2l1.7,10.2l3.2-10.7c11.5,0.2,20.7,9.6,20.5,21.1
	c-0.2,11.5-9.6,20.7-21.1,20.5c-11.5-0.2-20.7-9.6-20.5-21.1C1029.3,358.4,1029.8,356.1,1030.5,353.9L1030.5,353.9z"/>
<path class="st7" d="M1045,467.6c10.8,3.9,22.7-1.7,26.7-12.5c3.3-9.1-0.1-19.3-8.2-24.6l-2.4,8.2l-1.7-10.3c0,0,0,0-0.1,0
	c-10.8-4-22.7,1.6-26.7,12.4c-4,10.8,1.6,22.7,12.4,26.7C1044.9,467.6,1044.9,467.6,1045,467.6L1045,467.6z"/>
<path class="st3" d="M1046,463.9c10.8,3.9,22.7-1.7,26.7-12.5c3.3-9.1-0.1-19.3-8.2-24.6l-2.4,8.2l-1.7-10.3c0,0,0,0-0.1,0
	c-10.8-3.9-22.7,1.7-26.7,12.5S1035.2,460,1046,463.9z"/>
<path class="st7" d="M1023.3,502.2c2,11.3,12.8,18.9,24.1,16.9c11.3-2,18.9-12.8,16.9-24.1c-2-11.3-12.8-18.9-24.1-16.9
	c-5.1,0.9-9.7,3.7-12.9,7.8l9.3,14l-12.7-7.4C1023,495.6,1022.7,498.9,1023.3,502.2z"/>
<path class="st3" d="M1024.2,499.4c2,11.3,12.8,18.9,24.1,16.9c11.3-2,18.9-12.8,16.9-24.1c-2-11.3-12.8-18.9-24.1-16.9
	c-5.1,0.9-9.7,3.7-12.9,7.8l9.3,14l-12.7-7.4C1023.8,492.8,1023.6,496.2,1024.2,499.4L1024.2,499.4z"/>
<path class="st7" d="M9,470.2c7.1,2.6,14.9-1.1,17.5-8.2c2.6-7.1-1.1-14.9-8.2-17.5c-2.4-0.9-5-1.1-7.5-0.5l0.3,7l-3.3-6
	c-3.3,1.5-5.8,4.3-7,7.7c-0.4,1.2-0.7,2.4-0.8,3.7C-0.4,462.5,3.3,468.2,9,470.2L9,470.2z"/>
<path class="st3" d="M25.5,551.9c-1.2-6,3.9-11.3,8.9-14.7s10.9-6.8,12.6-12.7c2.5-8.4-4.9-16.1-10.6-22.8
	c-4.2-4.9-7.9-10.3-10.9-16.1c-1.3-2.3-2.2-4.8-2.6-7.3c-0.5-3.7,0.7-7.4,2-11c4-11.8,8.3-23.6,12.9-35.2"/>
<path class="st3" d="M9.6,468.4c7.1,2.6,14.9-1.1,17.5-8.2s-1.1-14.9-8.2-17.5c-2.4-0.9-5-1.1-7.5-0.5l0.3,7l-3.3-6
	c-3.3,1.5-5.8,4.3-7,7.7c-0.4,1.2-0.7,2.4-0.8,3.7C0.2,460.7,3.8,466.4,9.6,468.4L9.6,468.4z"/>
<path class="st7" d="M23.8,429.5c1.6-4.4,5.3-7.6,9.8-8.7l1.1,6.7l2.1-7c7.6,0.1,13.6,6.3,13.5,13.9C50.2,442,44,448,36.5,447.9
	S22.9,441.6,23,434C23,432.5,23.3,431,23.8,429.5z"/>
<path class="st3" d="M24.6,427.1c1.6-4.4,5.3-7.6,9.8-8.7l1.1,6.7l2.1-7c7.6,0.1,13.6,6.3,13.5,13.9c-0.1,7.6-6.3,13.6-13.9,13.5
	c-7.6-0.1-13.6-6.3-13.5-13.9C23.8,430.1,24,428.6,24.6,427.1z"/>
<path class="st7" d="M34.1,501.8c7.1,2.6,14.9-1.1,17.5-8.2c2.2-6-0.1-12.7-5.4-16.1l-1.6,5.4l-1.1-6.8c0,0,0,0,0,0
	c-7.1-2.6-14.9,1.1-17.5,8.2C23.3,491.4,27,499.2,34.1,501.8z"/>
<path class="st3" d="M34.7,499.4c7.1,2.6,14.9-1.1,17.5-8.2c2.2-6-0.1-12.7-5.4-16.1l-1.6,5.4l-1.1-6.8c0,0,0,0,0,0
	c-7.1-2.6-14.9,1.1-17.5,8.2C23.9,489,27.6,496.8,34.7,499.4z"/>
<path class="st7" d="M19.8,524.5c1.3,7.4,8.4,12.4,15.8,11.1c7.4-1.3,12.4-8.4,11.1-15.8s-8.4-12.4-15.8-11.1
	c-3.4,0.6-6.4,2.4-8.5,5.1l6.1,9.2l-8.3-4.9C19.6,520.2,19.4,522.4,19.8,524.5z"/>
<path class="st3" d="M20.4,522.7c1.3,7.4,8.4,12.4,15.8,11.1c7.4-1.3,12.4-8.4,11.1-15.8c-1.3-7.4-8.4-12.4-15.8-11.1
	c-3.4,0.6-6.4,2.4-8.5,5.1l6.1,9.2l-8.3-4.9C20.1,518.4,20,520.6,20.4,522.7z"/>
<ellipse class="st1" cx="480.9" cy="319.1" rx="17" ry="22"/>
<ellipse class="st1" cx="573.4" cy="319.6" rx="17" ry="22"/>
<path class="st1" d="M560.4,384.6c0,9.9-13.9,18-31,18s-31-8.1-31-18c0-8.6,10.4-15.8,24.3-17.6c2.2-0.3,4.4-0.4,6.7-0.4
	c3.7,0,7.5,0.4,11.1,1.2C552.2,370.4,560.4,377,560.4,384.6z"/>
<ellipse class="st3" cx="484.9" cy="314.1" rx="17" ry="22"/>
<ellipse class="st3" cx="577.4" cy="314.6" rx="17" ry="22"/>
<ellipse class="st3" cx="533.4" cy="379.6" rx="31" ry="18"/>
<path class="st8" d="M540.9,369.3c0,1.3-0.5,2.5-1.3,3.4c-0.8,0.9-2,1.4-3.2,1.4h-10c-2.6-0.1-4.6-2.2-4.5-4.8c0-1,0.3-1.9,0.8-2.7
	c2.2-0.3,4.4-0.5,6.7-0.5c3.7,0,7.5,0.4,11.1,1.3C540.8,368,540.9,368.7,540.9,369.3L540.9,369.3z"/>
<circle class="st8" cx="484.9" cy="308.1" r="5"/>
<circle class="st8" cx="577.9" cy="308.1" r="5"/>
<circle class="st9" cx="582.9" cy="355.1" r="5"/>
<circle class="st9" cx="460.9" cy="355.1" r="5"/>
<polygon class="st10" points="38.7,40.1 47.8,45.3 47.8,65.2 65.7,75.4 65.7,85.7 38.7,70.4 "/>
<polygon class="st11" points="65.7,23.2 74.3,29.3 47.8,45.3 38.7,40 "/>
<polygon class="st12" points="74.3,29.3 74.3,34.3 57.1,59.6 47.8,65.2 47.8,45.3 "/>
<polygon class="st10" points="74.4,34.2 88.5,42.4 70.7,67.3 57.3,59.6 "/>
<polygon class="st11" points="47.8,65.2 57.1,59.6 70.6,67.4 88.3,57.2 91.9,59.6 65.7,75.4 "/>
<polygon class="st12" points="88.5,42.4 70.7,67.3 88.5,57.2 "/>
<polygon class="st12" points="65.7,75.4 91.9,59.6 91.9,70.8 65.7,85.7 "/>
<g>
	<g>
		<path class="st13" d="M31.9,88.8c1.3-0.4,3.4-0.5,5.5-0.5c1.7,0,3.7,0.2,5.2,1c1.6,0.8,2.7,2.2,2.7,4.5c0,2.3-1,4-2.6,5.2
			c-1.6,1.2-3.9,1.8-6.5,1.8c-0.8,0-1.4-0.1-1.8-0.1l-1.2,6.3h-4.8L31.9,88.8z M35.1,96.5c0.4,0.1,0.8,0.2,1.7,0.2
			c1.9,0,3.5-1,3.5-2.6c0-1.8-1.4-2.1-2.7-2.1c-0.8,0-1.3,0.1-1.7,0.1L35.1,96.5z"/>
		<path class="st13" d="M45.2,106.8l2.5-13.5h4.9l-2.5,13.5H45.2z M48.3,89.8c0-1.7,1.4-2.6,2.7-2.6c1.3,0,2.4,0.8,2.4,2.2
			c0,1.6-1.3,2.5-2.8,2.5C49.4,92,48.3,91.2,48.3,89.8z"/>
		<path class="st13" d="M53.3,106.8l1.6-8.8c0.4-1.9,0.6-3.5,0.8-4.7H60l-0.2,2.2h0.1c1.4-1.9,3.1-2.5,4.9-2.5
			c2.6,0,3.7,1.6,3.7,3.9c0,0.5-0.1,1.7-0.2,2.2l-1.5,7.8h-4.9l1.3-7c0.1-0.5,0.1-1,0.1-1.5c0-0.8-0.2-1.4-1.1-1.4
			c-1.3,0-2.5,1.7-3.1,4.6l-1,5.3H53.3z"/>
		<path class="st13" d="M87.9,105.8c-1.7,0.5-4.4,1.2-7.1,1.2c-2.5,0-4.9-0.6-6.7-1.9c-1.7-1.2-2.9-3.4-2.9-6.2c0-3.5,1.5-6.2,4-8
			c2.3-1.8,5.5-2.7,9.1-2.7c2.7,0,4.9,0.5,5.7,0.9l-1.4,4c-0.9-0.4-2.6-0.8-4.5-0.8c-1.8,0-3.5,0.4-4.7,1.2c-1.6,1-2.7,2.8-2.7,5
			c0,3.2,2.2,4.5,5.1,4.5c1,0,1.6-0.1,1.9-0.3l0.6-2.9h-2.9l0.8-3.9h7.7L87.9,105.8z"/>
		<path class="st13" d="M106.7,98.7c0,5.4-3.9,8.4-8.8,8.4c-3.3,0-6.4-1.8-6.4-5.9c0-4.7,3.5-8.2,8.8-8.2
			C103.8,93,106.7,95.2,106.7,98.7z M96.6,101.2c0,1.5,0.8,2.2,2,2.2c2.1,0,3-2.7,3-4.4c0-1.3-0.5-2.3-1.9-2.3
			C97.4,96.7,96.6,99.7,96.6,101.2z"/>
	</g>
</g>
</svg>
