<svg id="レイヤー_1" data-name="レイヤー 1" xmlns="http://www.w3.org/2000/svg" viewBox="0 0 176.35 47.56"><defs><style>.cls-1{fill:#edc526;}.cls-2{fill:#e16732;}.cls-3{fill:#d33618;}.cls-4{fill:#3a3b3b;}</style></defs><polygon class="cls-1" points="0 12.8 6.91 16.8 6.91 31.96 20.54 39.68 20.54 47.56 0 35.87 0 12.8"/><polygon class="cls-2" points="20.54 0 27.07 4.59 6.91 16.76 0 12.76 20.54 0"/><polygon class="cls-3" points="27.07 4.63 27.07 8.42 14 27.7 6.91 31.97 6.91 16.8 27.07 4.63"/><polygon class="cls-1" points="27.21 8.38 37.93 14.58 24.39 33.56 14.13 27.66 27.21 8.38"/><polygon class="cls-2" points="6.91 31.97 14 27.7 24.26 33.6 37.79 25.88 40.51 27.7 20.54 39.69 6.91 31.97"/><polygon class="cls-3" points="37.93 14.58 24.39 33.56 37.93 25.84 37.93 14.58"/><polygon class="cls-3" points="20.54 39.68 40.51 27.69 40.51 36.23 20.54 47.56 20.54 39.68"/><path class="cls-4" d="M59.67,8.75a37,37,0,0,1,8.78-.87,18.67,18.67,0,0,1,8.31,1.57A7.46,7.46,0,0,1,81,16.58a9.74,9.74,0,0,1-4.17,8.26c-2.57,1.91-6.17,2.78-10.26,2.78a24.67,24.67,0,0,1-2.78-.22l-1.92,10H54.28Zm5.22,12.39a11.69,11.69,0,0,0,2.69.26c3.09,0,5.61-1.6,5.61-4.08,0-2.78-2.17-3.35-4.3-3.35a18,18,0,0,0-2.66.17Z" transform="translate(-2.34 -2.4)"/><path class="cls-4" d="M80.88,37.4,84.93,16h7.74l-4,21.39Zm5-27a4.11,4.11,0,0,1,4.35-4.08A3.47,3.47,0,0,1,94,9.8c0,2.61-2.08,4-4.47,4A3.43,3.43,0,0,1,85.88,10.36Z" transform="translate(-2.34 -2.4)"/><path class="cls-4" d="M93.75,37.4l2.61-13.95c.61-3.05,1-5.52,1.26-7.44h6.87l-.39,3.53h.09a9.27,9.27,0,0,1,7.78-4c4.13,0,5.91,2.52,5.91,6.13a29.12,29.12,0,0,1-.31,3.44L115.23,37.4h-7.74l2.09-11.13a14.23,14.23,0,0,0,.21-2.34c0-1.35-.39-2.26-1.78-2.26-2.09,0-4,2.65-4.91,7.25l-1.61,8.48Z" transform="translate(-2.34 -2.4)"/><path class="cls-4" d="M148.74,35.84a41.24,41.24,0,0,1-11.3,1.87,18.21,18.21,0,0,1-10.65-3c-2.7-2-4.56-5.35-4.56-9.92A15.44,15.44,0,0,1,128.53,12C132.22,9.23,137.27,7.8,143,7.8a24.74,24.74,0,0,1,9.13,1.43l-2.22,6.44a19.74,19.74,0,0,0-7.21-1.35,14.33,14.33,0,0,0-7.52,1.87,9.17,9.17,0,0,0-4.26,7.91c0,5.09,3.56,7.09,8,7.09a7.62,7.62,0,0,0,3.09-.48l.91-4.65h-4.57l1.22-6.13h12.22Z" transform="translate(-2.34 -2.4)"/><path class="cls-4" d="M178.69,24.62c0,8.65-6.21,13.3-14,13.3-5.3,0-10.13-2.91-10.13-9.34,0-7.44,5.61-13.09,13.91-13.09C174.13,15.49,178.69,18.93,178.69,24.62Zm-16,3.87c0,2.39,1.26,3.57,3.18,3.57,3.34,0,4.74-4.27,4.74-7,0-2-.87-3.65-3.09-3.65C163.83,21.36,162.65,26.14,162.65,28.49Z" transform="translate(-2.34 -2.4)"/></svg>