<?xml version="1.0" encoding="utf-8"?>
<!-- Generator: Adobe Illustrator 25.0.0, SVG Export Plug-In . SVG Version: 6.00 Build 0)  -->
<svg version="1.1" id="レイヤー_1" xmlns="http://www.w3.org/2000/svg" xmlns:xlink="http://www.w3.org/1999/xlink" x="0px"
	 y="0px" viewBox="0 0 176.4 47.6" style="enable-background:new 0 0 176.4 47.6;" xml:space="preserve">
<style type="text/css">
	.st0{fill:#EDC526;}
	.st1{fill:#E16732;}
	.st2{fill:#D33618;}
	.st3{fill:#323333;}
</style>
<polygon class="st0" points="0,12.8 6.9,16.8 6.9,32 20.5,39.7 20.5,47.6 0,35.9 "/>
<polygon class="st1" points="20.5,0 27.1,4.6 6.9,16.8 0,12.8 "/>
<polygon class="st2" points="27.1,4.6 27.1,8.4 14,27.7 6.9,32 6.9,16.8 "/>
<polygon class="st0" points="27.2,8.4 37.9,14.6 24.4,33.6 14.1,27.7 "/>
<polygon class="st1" points="6.9,32 14,27.7 24.3,33.6 37.8,25.9 40.5,27.7 20.5,39.7 "/>
<polygon class="st2" points="37.9,14.6 24.4,33.6 37.9,25.8 "/>
<polygon class="st2" points="20.5,39.7 40.5,27.7 40.5,36.2 20.5,47.6 "/>
<path class="st3" d="M57.3,6.3c2.9-0.6,5.8-0.9,8.8-0.9c2.9,0,5.7,0.5,8.3,1.6c2.7,1.3,4.4,4.1,4.2,7.1c0.1,3.3-1.5,6.4-4.2,8.3
	c-2.6,1.9-6.2,2.8-10.3,2.8c-0.9,0-1.9-0.1-2.8-0.2l-1.9,10h-7.6L57.3,6.3z M62.5,18.7c0.9,0.2,1.8,0.3,2.7,0.3
	c3.1,0,5.6-1.6,5.6-4.1c0-2.8-2.2-3.4-4.3-3.4c-0.9,0-1.8,0-2.7,0.2L62.5,18.7z"/>
<path class="st3" d="M78.5,35l4.1-21.4h7.7l-4,21.4H78.5z M83.5,8c0-2.3,1.9-4.1,4.1-4.1c0.1,0,0.1,0,0.2,0c1.9-0.2,3.6,1.2,3.8,3.2
	c0,0.1,0,0.2,0,0.3c0,2.6-2.1,4-4.5,4c-1.9,0.1-3.5-1.3-3.6-3.2C83.5,8.1,83.5,8,83.5,8L83.5,8z"/>
<path class="st3" d="M91.4,35L94,21c0.6-3,1-5.5,1.3-7.4h6.9l-0.4,3.5h0.1c1.8-2.6,4.7-4.1,7.8-4c4.1,0,5.9,2.5,5.9,6.1
	c0,1.2-0.1,2.3-0.3,3.4L112.9,35h-7.7l2.1-11.1c0.1-0.8,0.2-1.6,0.2-2.3c0-1.4-0.4-2.3-1.8-2.3c-2.1,0-4,2.6-4.9,7.2L99.2,35H91.4z"
	/>
<path class="st3" d="M146.4,33.4c-3.7,1.1-7.5,1.8-11.3,1.9c-3.8,0.1-7.5-0.9-10.7-3c-2.7-2-4.6-5.4-4.6-9.9
	c-0.1-5,2.2-9.8,6.3-12.8c3.7-2.8,8.7-4.2,14.5-4.2c3.1-0.1,6.2,0.4,9.1,1.4l-2.2,6.4c-2.3-0.9-4.7-1.4-7.2-1.4
	c-2.6-0.1-5.2,0.6-7.5,1.9c-2.7,1.7-4.3,4.7-4.3,7.9c0,5.1,3.6,7.1,8,7.1c1.1,0.1,2.1-0.1,3.1-0.5l0.9-4.6H136l1.2-6.1h12.2
	L146.4,33.4z"/>
<path class="st3" d="M176.4,22.2c0,8.6-6.2,13.3-14,13.3c-5.3,0-10.1-2.9-10.1-9.3c0-7.4,5.6-13.1,13.9-13.1
	C171.8,13.1,176.4,16.5,176.4,22.2z M160.4,26.1c0,2.4,1.3,3.6,3.2,3.6c3.3,0,4.7-4.3,4.7-7c0-2-0.9-3.6-3.1-3.6
	C161.5,19,160.3,23.7,160.4,26.1L160.4,26.1z"/>
</svg>
