<?xml version="1.0" encoding="utf-8"?>
<!-- Generator: Adobe Illustrator 25.0.0, SVG Export Plug-In . SVG Version: 6.00 Build 0)  -->
<svg version="1.1" id="レイヤー_1" xmlns="http://www.w3.org/2000/svg" xmlns:xlink="http://www.w3.org/1999/xlink" x="0px"
	 y="0px" viewBox="0 0 176.4 47.6" style="enable-background:new 0 0 176.4 47.6;" xml:space="preserve">
<style type="text/css">
	.st0{fill:#EDC526;}
	.st1{fill:#E16732;}
	.st2{fill:#D33618;}
	.st3{fill:#FFFFFF;stroke:#6D6868;stroke-miterlimit:10;}
</style>
<polygon class="st0" points="5.6,14.2 11.6,17.7 11.6,30.9 23.5,37.7 23.5,44.5 5.6,34.3 "/>
<polygon class="st1" points="23.5,3.1 29.2,7.1 11.6,17.7 5.6,14.2 "/>
<polygon class="st2" points="29.2,7.1 29.2,10.4 17.8,27.2 11.6,30.9 11.6,17.7 "/>
<polygon class="st0" points="29.3,10.4 38.6,15.8 26.9,32.3 17.9,27.2 "/>
<polygon class="st1" points="11.6,30.9 17.8,27.2 26.8,32.3 38.5,25.6 40.9,27.2 23.5,37.7 "/>
<polygon class="st2" points="38.6,15.8 26.9,32.3 38.6,25.5 "/>
<polygon class="st2" points="23.5,37.7 40.9,27.2 40.9,34.6 23.5,44.5 "/>
<path class="st3" d="M52.3,10.3c2.9-0.6,5.8-0.9,8.8-0.9c2.9,0,5.7,0.5,8.3,1.6c2.7,1.3,4.4,4.1,4.2,7.1c0.1,3.3-1.5,6.4-4.2,8.3
	c-2.6,1.9-6.2,2.8-10.3,2.8c-0.9,0-1.9-0.1-2.8-0.2l-1.9,10h-7.6L52.3,10.3z M57.5,22.7c0.9,0.2,1.8,0.3,2.7,0.3
	c3.1,0,5.6-1.6,5.6-4.1c0-2.8-2.2-3.4-4.3-3.4c-0.9,0-1.8,0-2.7,0.2L57.5,22.7z"/>
<path class="st3" d="M73.5,39l4.1-21.4h7.7l-4,21.4H73.5z M78.5,12c0-2.3,1.9-4.1,4.1-4.1c0.1,0,0.1,0,0.2,0
	c1.9-0.2,3.6,1.2,3.8,3.2c0,0.1,0,0.2,0,0.3c0,2.6-2.1,4-4.5,4c-1.9,0.1-3.5-1.3-3.6-3.2C78.5,12.1,78.5,12,78.5,12L78.5,12z"/>
<path class="st3" d="M86.4,39L89,25c0.6-3,1-5.5,1.3-7.4h6.9l-0.4,3.5h0.1c1.8-2.6,4.7-4.1,7.8-4c4.1,0,5.9,2.5,5.9,6.1
	c0,1.2-0.1,2.3-0.3,3.4L107.9,39h-7.7l2.1-11.1c0.1-0.8,0.2-1.6,0.2-2.3c0-1.4-0.4-2.3-1.8-2.3c-2.1,0-4,2.6-4.9,7.2L94.2,39H86.4z"
	/>
<path class="st3" d="M141.4,37.4c-3.7,1.1-7.5,1.8-11.3,1.9c-3.8,0.1-7.5-0.9-10.7-3c-2.7-2-4.6-5.4-4.6-9.9
	c-0.1-5,2.2-9.8,6.3-12.8c3.7-2.8,8.7-4.2,14.5-4.2c3.1-0.1,6.2,0.4,9.1,1.4l-2.2,6.4c-2.3-0.9-4.7-1.4-7.2-1.4
	c-2.6-0.1-5.2,0.6-7.5,1.9c-2.7,1.7-4.3,4.7-4.3,7.9c0,5.1,3.6,7.1,8,7.1c1.1,0.1,2.1-0.1,3.1-0.5l0.9-4.6H131l1.2-6.1h12.2
	L141.4,37.4z"/>
<path class="st3" d="M169.4,26.2c0,8.6-6.2,13.3-14,13.3c-5.3,0-10.1-2.9-10.1-9.3c0-7.4,5.6-13.1,13.9-13.1
	C164.8,17.1,169.4,20.5,169.4,26.2z M153.4,30.1c0,2.4,1.3,3.6,3.2,3.6c3.3,0,4.7-4.3,4.7-7c0-2-0.9-3.6-3.1-3.6
	C154.5,23,153.3,27.7,153.4,30.1L153.4,30.1z"/>
</svg>
